<svg width="48" height="48" viewBox="0 0 48 48" fill="none" xmlns="http://www.w3.org/2000/svg">
<path d="M9.03156 18.4343C8.37306 18.123 7.63881 18.0968 6.96381 18.3555C6.36006 18.588 5.77206 18.7178 5.21631 18.7433L5.28456 20.2418C6.00231 20.2088 6.74781 20.0453 7.50231 19.7558C7.79106 19.6448 8.10831 19.6575 8.39331 19.791C8.68956 19.9305 8.91006 20.178 9.01506 20.4885C10.4978 24.891 11.2501 29.4788 11.2501 34.1243C11.2501 38.2823 10.6441 42.4103 9.44931 46.392L9.25656 47.0355L10.6936 47.466L10.8863 46.8225C12.1231 42.7013 12.7501 38.4285 12.7501 34.1243C12.7501 29.3153 11.9716 24.567 10.4363 20.01C10.2031 19.3185 9.69081 18.7448 9.03156 18.4343Z" fill="#FFBC00"/>
<path d="M38.9685 18.4342C38.3085 18.7447 37.797 19.3185 37.5637 20.01C36.0285 24.5662 35.25 29.3152 35.25 34.1242C35.25 38.4285 35.877 42.7012 37.1138 46.8232L37.3065 47.4667L38.7435 47.0362L38.5508 46.392C37.356 42.4095 36.75 38.2822 36.75 34.1242C36.75 29.4787 37.5022 24.891 38.9857 20.4892C39.09 20.1787 39.3113 19.9312 39.6075 19.7917C39.8925 19.6575 40.2083 19.644 40.4985 19.7565C41.253 20.046 41.9985 20.2095 42.7163 20.2425L42.7845 18.744C42.2288 18.7185 41.6407 18.588 41.0362 18.3562C40.3612 18.0967 39.6277 18.1252 38.9685 18.4342Z" fill="#FFBC00"/>
<path d="M20.5231 3.3135L20.6311 3.117C20.8726 2.67525 21.0001 2.175 21.0001 1.67175V0.75H19.5001V1.67175C19.5001 1.9245 19.4363 2.17575 19.3148 2.39775L19.2068 2.59425C19.0358 2.907 18.7366 3.15825 18.3631 3.303C17.6678 3.57225 16.9853 3.894 16.3291 4.2615C15.6886 3.9255 14.9783 3.75 14.2501 3.75C12.0811 3.75 10.2908 5.2515 9.85808 7.296C7.81283 7.14075 5.41508 8.1615 3.52508 10.0507C1.91258 11.6632 0.907584 13.662 0.767334 15.5355L2.26283 15.6473C2.37458 14.1488 3.24383 12.453 4.58558 11.1105C6.34583 9.351 8.65283 8.45775 10.3231 8.88525C10.5443 8.94225 10.7791 8.895 10.9621 8.757C11.1443 8.619 11.2538 8.406 11.2591 8.17725C11.2988 6.5355 12.6128 5.25 14.2501 5.25C14.8418 5.25 15.4156 5.424 15.9098 5.75325C16.1513 5.91375 16.4626 5.922 16.7108 5.77275C17.4121 5.3535 18.1501 4.99275 18.9053 4.701C19.6081 4.42875 20.1826 3.93675 20.5231 3.3135Z" fill="#FFBC00"/>
<path d="M44.475 10.0507C42.585 8.16 40.1797 7.13775 38.142 7.296C37.7092 5.2515 35.919 3.75 33.75 3.75C33.0217 3.75 32.3115 3.9255 31.671 4.26075C31.0148 3.89325 30.3308 3.5715 29.634 3.3015C29.2605 3.15675 28.9613 2.9055 28.791 2.59275L28.6845 2.397C28.5637 2.17575 28.5 1.926 28.5 1.674V0.75H27V1.674C27 2.17575 27.1267 2.67375 27.3667 3.11325L27.4733 3.30825C27.813 3.93225 28.3883 4.4265 29.0925 4.69875C29.8493 4.992 30.5888 5.35275 31.29 5.772C31.539 5.92125 31.8502 5.913 32.091 5.7525C32.5845 5.424 33.1582 5.25 33.75 5.25C35.3872 5.25 36.7012 6.5355 36.741 8.17725C36.7462 8.406 36.8557 8.619 37.038 8.757C37.2202 8.895 37.4565 8.943 37.677 8.88525C39.3465 8.457 41.6543 9.351 43.4145 11.1105C44.757 12.4537 45.6255 14.1495 45.7372 15.6473L47.2327 15.5355C47.0932 13.6628 46.0882 11.6632 44.475 10.0507Z" fill="#FFBC00"/>
<path d="M27 16.5H27.375C28.4085 16.5 29.25 15.6585 29.25 14.625C29.25 13.5915 28.4085 12.75 27.375 12.75H27V12C27 11.9632 26.9843 11.844 26.9775 11.8185L26.2275 8.8185C26.1443 8.484 25.8443 8.25 25.5 8.25H22.5C22.1558 8.25 21.8558 8.484 21.7725 8.81775L21.0225 11.8177C21.0158 11.844 21 11.9632 21 12V12.75H20.625C19.5915 12.75 18.75 13.5915 18.75 14.625C18.75 15.6585 19.5915 16.5 20.625 16.5H21V17.25V18H20.625C19.5915 18 18.75 18.8415 18.75 19.875C18.75 20.9085 19.5915 21.75 20.625 21.75H21V22.5V23.25H20.625C19.5915 23.25 18.75 24.0915 18.75 25.125C18.75 26.1585 19.5915 27 20.625 27H21V27.75V28.5H20.625C19.5915 28.5 18.75 29.3415 18.75 30.375C18.75 31.4085 19.5915 32.25 20.625 32.25H21V33V33.75H20.625C19.5915 33.75 18.75 34.5915 18.75 35.625C18.75 36.6585 19.5915 37.5 20.625 37.5H21V38.25V39H20.625C19.5915 39 18.75 39.8415 18.75 40.875C18.75 41.9085 19.5915 42.75 20.625 42.75H21V43.5C21 43.914 21.336 44.25 21.75 44.25H26.25C26.664 44.25 27 43.914 27 43.5V42.75H27.375C28.4085 42.75 29.25 41.9085 29.25 40.875C29.25 39.8415 28.4085 39 27.375 39H27V38.25V37.5H27.375C28.4085 37.5 29.25 36.6585 29.25 35.625C29.25 34.5915 28.4085 33.75 27.375 33.75H27V33V32.25H27.375C28.4085 32.25 29.25 31.4085 29.25 30.375C29.25 29.3415 28.4085 28.5 27.375 28.5H27V27.75V27H27.375C28.4085 27 29.25 26.1585 29.25 25.125C29.25 24.0915 28.4085 23.25 27.375 23.25H27V22.5V21.75H27.375C28.4085 21.75 29.25 20.9085 29.25 19.875C29.25 18.8415 28.4085 18 27.375 18H27V17.25V16.5ZM23.0858 9.75H24.9143L25.2893 11.25H22.7108L23.0858 9.75ZM20.625 15C20.418 15 20.25 14.832 20.25 14.625C20.25 14.418 20.418 14.25 20.625 14.25H21.75C22.164 14.25 22.5 13.914 22.5 13.5V12.75H25.5V13.5C25.5 13.914 25.836 14.25 26.25 14.25H27.375C27.582 14.25 27.75 14.418 27.75 14.625C27.75 14.832 27.582 15 27.375 15H26.25C25.836 15 25.5 15.336 25.5 15.75V16.5H24.75V15H23.25V16.5H22.5V15.75C22.5 15.336 22.164 15 21.75 15H20.625ZM27.375 40.5C27.582 40.5 27.75 40.668 27.75 40.875C27.75 41.082 27.582 41.25 27.375 41.25H26.25C25.836 41.25 25.5 41.586 25.5 42V42.75H24.75V41.25H23.25V42.75H22.5V42C22.5 41.586 22.164 41.25 21.75 41.25H20.625C20.418 41.25 20.25 41.082 20.25 40.875C20.25 40.668 20.418 40.5 20.625 40.5H21.75C22.164 40.5 22.5 40.164 22.5 39.75V39H25.5V39.75C25.5 40.164 25.836 40.5 26.25 40.5H27.375ZM27.375 35.25C27.582 35.25 27.75 35.418 27.75 35.625C27.75 35.832 27.582 36 27.375 36H26.25C25.836 36 25.5 36.336 25.5 36.75V37.5H24.75V36H23.25V37.5H22.5V36.75C22.5 36.336 22.164 36 21.75 36H20.625C20.418 36 20.25 35.832 20.25 35.625C20.25 35.418 20.418 35.25 20.625 35.25H21.75C22.164 35.25 22.5 34.914 22.5 34.5V33.75H25.5V34.5C25.5 34.914 25.836 35.25 26.25 35.25H27.375ZM27.375 30C27.582 30 27.75 30.168 27.75 30.375C27.75 30.582 27.582 30.75 27.375 30.75H26.25C25.836 30.75 25.5 31.086 25.5 31.5V32.25H24.75V30.75H23.25V32.25H22.5V31.5C22.5 31.086 22.164 30.75 21.75 30.75H20.625C20.418 30.75 20.25 30.582 20.25 30.375C20.25 30.168 20.418 30 20.625 30H21.75C22.164 30 22.5 29.664 22.5 29.25V28.5H25.5V29.25C25.5 29.664 25.836 30 26.25 30H27.375ZM27.375 24.75C27.582 24.75 27.75 24.918 27.75 25.125C27.75 25.332 27.582 25.5 27.375 25.5H26.25C25.836 25.5 25.5 25.836 25.5 26.25V27H24.75V25.5H23.25V27H22.5V26.25C22.5 25.836 22.164 25.5 21.75 25.5H20.625C20.418 25.5 20.25 25.332 20.25 25.125C20.25 24.918 20.418 24.75 20.625 24.75H21.75C22.164 24.75 22.5 24.414 22.5 24V23.25H25.5V24C25.5 24.414 25.836 24.75 26.25 24.75H27.375ZM27.375 19.5C27.582 19.5 27.75 19.668 27.75 19.875C27.75 20.082 27.582 20.25 27.375 20.25H26.25C25.836 20.25 25.5 20.586 25.5 21V21.75H24.75V20.25H23.25V21.75H22.5V21C22.5 20.586 22.164 20.25 21.75 20.25H20.625C20.418 20.25 20.25 20.082 20.25 19.875C20.25 19.668 20.418 19.5 20.625 19.5H21.75C22.164 19.5 22.5 19.164 22.5 18.75V18H25.5V18.75C25.5 19.164 25.836 19.5 26.25 19.5H27.375Z" fill="#FFBC00"/>
</svg>
