<svg width="36" height="42" viewBox="0 0 36 42" fill="none" xmlns="http://www.w3.org/2000/svg">
<path d="M34.7132 10.7726C34.0562 9.44081 33.1474 8.23414 32.0074 7.17465C32.2241 6.97709 32.3651 6.70995 32.4021 6.41161C32.4497 6.02858 32.3203 5.65241 32.0474 5.37948L29.3583 2.69035C28.948 2.28021 28.3009 2.22214 27.7777 2.54604L25.8385 3.62399C23.3664 2.77986 20.6098 2.33329 17.8455 2.33329C17.6957 2.33329 17.5456 2.33558 17.3956 2.33885L17.7257 1.44163C17.7331 1.42137 17.7395 1.40079 17.7447 1.37988C17.8288 1.0461 17.7558 0.698926 17.5442 0.427294C17.3326 0.155662 17.0139 0 16.6696 0H13.6772C13.1607 0 12.717 0.367675 12.591 0.896811L11.9156 3.26318C9.26987 4.14954 7.08963 5.63371 5.59843 7.57246C5.39222 7.84058 5.44244 8.22516 5.71056 8.43146C5.8218 8.51705 5.9532 8.55853 6.08347 8.55853C6.26714 8.55853 6.44885 8.47629 6.56948 8.31941C7.75907 6.77275 9.44979 5.54339 11.4996 4.7204L10.9821 6.53363C10.9808 6.53779 10.9798 6.54204 10.9786 6.54629C10.8672 6.97105 10.9506 7.40585 11.2079 7.73923C11.4571 8.06239 11.8439 8.2477 12.2691 8.2477H14.5874L13.9944 12.2797C13.9797 12.3786 13.9767 12.4705 13.985 12.5603C14.0378 13.1385 14.4818 13.5581 15.0405 13.5581C15.3316 13.5613 15.7806 13.3562 16.0069 12.9401C16.0296 12.8935 19.0966 6.8701 19.1189 6.8211C19.2973 6.41986 19.2607 5.95655 19.0213 5.58169C18.7718 5.19123 18.3471 4.95398 17.8882 4.94704L16.4466 4.91821L16.9389 3.58014C17.2398 3.56593 17.5433 3.55833 17.8456 3.55833C20.0789 3.55833 22.3045 3.86337 24.361 4.44534L21.2628 6.1675C21.259 6.16963 21.2552 6.17175 21.2514 6.17404C20.8142 6.42942 20.5281 6.85083 20.4662 7.33015C20.4065 7.79305 20.5703 8.25669 20.9158 8.60215L23.1311 10.8175C22.6806 11.1459 21.9384 11.6876 21.1799 12.2443C20.7133 11.6193 20.1567 11.072 19.5166 10.6141C19.2415 10.4174 18.8588 10.4808 18.662 10.756C18.4653 11.0312 18.5287 11.4138 18.8039 11.6105C19.3382 11.9926 19.8033 12.4491 20.1934 12.9701C19.6736 13.354 19.2082 13.7004 18.9012 13.9343C18.6151 13.5549 18.2712 13.2161 17.8761 12.9334C17.6011 12.7367 17.2185 12.8001 17.0215 13.0753C16.8248 13.3504 16.8882 13.733 17.1634 13.9298C18.0591 14.5919 18.6134 15.5834 18.6351 16.7889C18.6351 17.9576 18.0561 19.0465 17.0862 19.7018C16.8058 19.8912 16.7322 20.272 16.9215 20.5522C17.0398 20.7274 17.233 20.8219 17.4296 20.8219C17.5475 20.8219 17.6668 20.7879 17.7719 20.7168C19.0795 19.8334 19.8601 18.3651 19.8601 16.7888C19.8601 16.5767 19.8443 16.3664 19.8162 16.1587C19.876 16.145 21.2553 15.6906 21.361 15.6579C21.4254 16.0226 21.4581 16.3937 21.4581 16.7672C21.4581 18.8752 20.4138 20.8391 18.6645 22.0209C18.3842 22.2103 18.3105 22.591 18.4998 22.8714C18.6182 23.0466 18.8113 23.1411 19.008 23.1411C19.1259 23.1411 19.2451 23.107 19.3502 23.0361C21.4372 21.6261 22.6832 19.2826 22.6832 16.7672C22.6832 16.2643 22.6329 15.7648 22.535 15.2756L24.21 14.7301C24.5317 14.6254 24.7076 14.2797 24.6029 13.958C24.4981 13.6363 24.1524 13.4606 23.8308 13.5653L19.5973 14.9438C20.6858 14.1111 24.247 11.5199 24.2885 11.4898C24.4681 11.3561 24.5806 11.1513 24.5968 10.9279C24.6132 10.7046 24.5317 10.4855 24.3734 10.3272L21.7819 7.73572C21.7038 7.65756 21.6699 7.57385 21.6811 7.48671C21.6938 7.38838 21.7607 7.29658 21.8648 7.23427L28.4865 3.55098L31.1969 6.26118L26.1702 8.58402C25.9445 8.68831 25.7824 8.8964 25.7364 9.14067C25.6905 9.38495 25.7659 9.63771 25.938 9.81681L27.8132 11.7685C27.8958 11.8536 27.9295 11.9744 27.9036 12.092C27.8889 12.1585 27.85 12.2458 27.7476 12.2898L26.549 12.6801C26.2274 12.7848 26.0514 13.1305 26.1561 13.4522C26.261 13.7739 26.6067 13.9498 26.9282 13.845L28.1462 13.4484C28.1563 13.4451 28.1664 13.4415 28.1762 13.4378C28.645 13.2576 28.9904 12.853 29.0999 12.3555C29.2146 11.835 29.0622 11.2967 28.6944 10.9177L27.2635 9.4284L30.8429 7.77451C33.4522 10.031 34.7749 12.9872 34.7749 16.5676C34.7749 21.7975 34.0873 23.9403 29.5356 28.0595C28.6375 28.8724 28.4222 30.366 28.8775 32.6254C28.9362 32.9162 29.1917 33.1171 29.4774 33.1171C29.5175 33.1171 29.5582 33.1131 29.599 33.1049C29.9307 33.0381 30.1453 32.7151 30.0785 32.3835C29.7308 30.6585 29.83 29.4455 30.3576 28.9679C35.1844 24.5998 35.9999 22.0405 35.9999 16.5678C36.0001 14.4531 35.5671 12.5034 34.7132 10.7726ZM17.8667 6.17175C17.9397 6.17289 17.9788 6.22516 17.989 6.24117C18.0111 6.27588 18.0078 6.30013 18.003 6.31443L15.34 11.5489L15.8817 7.86622C15.9129 7.65429 15.8504 7.43975 15.7103 7.27763C15.5703 7.11552 15.3671 7.0225 15.1529 7.0225H12.2691C12.2023 7.0225 12.1839 6.99865 12.1779 6.99089C12.1605 6.96835 12.1476 6.92278 12.1624 6.86161L13.7714 1.22504H16.5001L15.0602 5.13847C14.9782 5.36151 15.0092 5.61182 15.1433 5.80816C15.2773 6.00441 15.4991 6.12446 15.7369 6.12928L17.8667 6.17175Z" fill="#FFBC00"/>
<path d="M30.8314 35.0775C30.722 34.7572 30.3739 34.5863 30.0538 34.6955C29.7337 34.8047 29.5627 35.1529 29.6719 35.473C29.7693 35.7588 29.8761 36.0583 29.9894 36.3636C30.0835 36.6174 30.0665 36.8891 29.9414 37.1284C29.8169 37.3667 29.605 37.5348 29.3445 37.6019L17.87 40.5597C17.417 40.6766 16.9425 40.4381 16.7666 40.005C16.0788 38.3109 14.4672 34.3443 10.3641 34.8999C10.0776 34.9388 9.79199 34.9789 9.51056 35.0184C8.12349 35.2132 6.68954 35.4149 6.04794 35.3098C4.69362 35.0881 3.95068 34.529 3.70975 33.5503C3.55907 32.9491 3.74454 32.4762 4.0116 32.0498C4.32293 31.4932 4.06354 30.8357 3.64466 30.5457C3.37948 30.3621 3.08498 30.2405 2.86399 30.1662C2.8675 30.0514 2.93389 29.8837 3.20161 29.6907C3.33603 29.5939 3.42538 29.4467 3.44947 29.2829C3.47348 29.1191 3.4302 28.9524 3.32934 28.821C3.32934 28.7989 2.86774 28.2875 2.24591 27.7814C2.73666 27.4275 3.62237 26.6607 3.50362 25.8085C3.45258 25.4424 3.20267 24.9477 2.30177 24.6707C1.2266 24.34 1.22562 23.9064 1.22513 23.6733C1.22439 23.3524 1.38014 23.1445 1.94978 22.7059C2.77676 22.0693 3.72176 21.241 4.46078 19.9254C4.71167 19.4786 4.74164 18.9329 4.5409 18.4655C4.42338 18.192 4.26077 17.9346 4.10364 17.6858C3.87815 17.3286 3.62261 16.924 3.67708 16.69C3.70771 16.5586 3.79207 16.3803 3.88975 16.1737C4.12978 15.6663 4.45858 14.9713 4.52767 13.9138C4.60362 12.7482 4.847 11.6443 5.2511 10.6326C5.37654 10.3185 5.22366 9.96213 4.90947 9.83661C4.59521 9.71108 4.23897 9.86405 4.11344 10.1782C3.66149 11.3097 3.38953 12.5398 3.30516 13.8341C3.25142 14.6585 3.00225 15.1851 2.7824 15.6498C2.65998 15.9086 2.54433 16.1532 2.48398 16.4121C2.31329 17.1449 2.71412 17.7797 3.06775 18.3398C3.20561 18.5582 3.33587 18.7645 3.41525 18.949C3.46646 19.0683 3.45797 19.2091 3.39263 19.3254C2.88391 20.2309 2.24942 20.9291 1.20242 21.7352C0.722697 22.1045 -0.00228134 22.6626 5.39644e-06 23.676C0.00229214 24.7174 0.655483 25.4461 1.94161 25.8416C2.14979 25.9056 2.24436 25.9664 2.28242 25.9972C2.22141 26.1946 1.7951 26.6193 1.37671 26.8923C1.30998 26.9356 1.25224 26.9915 1.20683 27.0569C0.942714 27.4372 0.812779 28.2127 1.53727 28.7903C1.71702 28.9337 1.8659 29.0651 1.98522 29.1775C1.47528 29.8561 1.61363 30.6062 1.89286 31.0154C1.98163 31.1455 2.11704 31.2364 2.27107 31.2692C2.27474 31.2701 2.62772 31.3507 2.90196 31.5232C2.63621 31.9946 2.23987 32.7054 2.51999 33.8431C2.88252 35.3163 4.00286 36.2164 5.84981 36.5187C6.67459 36.6536 8.06779 36.4581 9.6806 36.2316C9.96015 36.1924 10.2438 36.1525 10.5282 36.114C13.3074 35.7374 14.6231 37.983 15.6311 40.4659C15.9674 41.2943 16.7767 41.8142 17.6391 41.8141C17.8168 41.8141 17.9969 41.792 18.1753 41.746L29.6499 38.7882C30.2417 38.6357 30.7435 38.2375 31.0266 37.696C31.3103 37.1532 31.3506 36.5123 31.1374 35.9377C31.0286 35.6425 30.9255 35.3531 30.8314 35.0775Z" fill="#FFBC00"/>
<path d="M15.123 18.6826C16.1499 18.6826 16.9855 17.8472 16.9855 16.8202C16.9855 15.7932 16.15 14.9578 15.123 14.9578C14.096 14.9578 13.2605 15.7932 13.2605 16.8202C13.2605 17.8472 14.096 18.6826 15.123 18.6826ZM15.123 16.1827C15.4745 16.1827 15.7604 16.4686 15.7604 16.8201C15.7604 17.1716 15.4745 17.4575 15.123 17.4575C14.7715 17.4575 14.4855 17.1716 14.4855 16.8201C14.4855 16.4686 14.7715 16.1827 15.123 16.1827Z" fill="#FFBC00"/>
<path d="M12.3009 12.9834C11.1015 13.874 10.3855 15.2966 10.3855 16.7888C10.3855 18.3371 11.1447 19.7908 12.4164 20.6774C12.5231 20.7518 12.6452 20.7875 12.7661 20.7875C12.9596 20.7875 13.15 20.696 13.2691 20.5253C13.4626 20.2478 13.3944 19.866 13.1169 19.6725C12.1736 19.0149 11.6105 17.9368 11.6105 16.7888C11.6105 15.6659 12.1284 14.6374 13.0313 13.9669C13.3028 13.7652 13.3596 13.3816 13.1578 13.1099C12.9562 12.8384 12.5726 12.7816 12.3009 12.9834Z" fill="#FFBC00"/>
<path d="M11.5045 21.9684C10.8722 21.5275 10.3305 20.9817 9.89452 20.3462C9.70318 20.0672 9.32203 19.9962 9.04297 20.1875C8.76399 20.3789 8.69294 20.7601 8.88437 21.0391C9.40411 21.7969 10.0499 22.4476 10.804 22.9733C10.9107 23.0477 11.0328 23.0834 11.1537 23.0834C11.3472 23.0834 11.5376 22.9919 11.6567 22.8212C11.8501 22.5436 11.782 22.1618 11.5045 21.9684Z" fill="#FFBC00"/>
<path d="M10.6195 10.6938C8.7053 12.1153 7.5625 14.3857 7.5625 16.7671C7.5625 17.2408 7.6066 17.7149 7.69366 18.1764C7.73735 18.408 8.03528 18.7348 8.40917 18.6647C8.74156 18.602 8.96019 18.2817 8.89747 17.9492C8.82445 17.5624 8.78746 17.1647 8.78746 16.7671C8.78746 14.7417 9.72143 12.8865 11.3498 11.6772C11.6213 11.4755 11.6781 11.0919 11.4763 10.8202C11.2748 10.5488 10.891 10.4922 10.6195 10.6938Z" fill="#FFBC00"/>
</svg>
