<svg width="42" height="42" viewBox="0 0 42 42" fill="none" xmlns="http://www.w3.org/2000/svg">
<g clip-path="url(#clip0)">
<path d="M31.0065 18.6225C28.4255 18.6225 26.2192 20.1012 25.3073 22.185C24.1912 21.3416 22.7506 20.8687 21.002 20.8687C19.2517 20.8687 17.8086 21.3416 16.6925 22.1889C15.7828 20.1009 13.5765 18.6221 10.9933 18.6221C7.60173 18.6221 4.8427 21.1675 4.8427 24.2963C4.8427 27.4272 7.60173 29.969 10.9933 29.969C11.6008 29.969 12.0945 29.4788 12.0945 28.8682C12.0945 28.7993 12.0656 28.7393 12.0525 28.6701C12.1849 28.4553 12.2796 28.2229 12.2796 27.952C12.2796 27.1712 11.647 26.5414 10.8676 26.5414C10.2396 26.5414 9.72221 26.954 9.5375 27.5134C8.07711 27.0055 7.04053 25.7542 7.04053 24.2917C7.04053 22.3778 8.81278 20.8185 10.9891 20.8185C13.1643 20.8185 14.9376 22.3778 14.9376 24.2917C14.9376 24.3136 14.9486 24.339 14.9507 24.3542C14.4484 25.4081 14.1603 26.6513 14.1603 28.1138C14.1603 32.3092 18.5142 36.3764 19.8969 37.5677V40.8989C19.8969 41.5077 20.3903 42.0001 20.9981 42.0001C21.6056 42.0001 22.099 41.5074 22.099 40.8989V37.5719C23.4842 36.3806 27.8346 32.3096 27.8346 28.1141C27.8346 26.6516 27.5443 25.4063 27.0453 24.3546C27.0477 24.333 27.0583 24.3094 27.0583 24.2921C27.0583 22.3782 28.8324 20.8189 31.0069 20.8189C33.1832 20.8189 34.9554 22.3782 34.9554 24.2921C34.9554 25.7546 33.9185 26.9999 32.4588 27.5137C32.2737 26.9501 31.7616 26.5418 31.134 26.5418C30.3531 26.5418 29.7167 27.1694 29.7167 27.9524C29.7167 28.2236 29.8114 28.4557 29.9424 28.6704C29.9318 28.7393 29.9018 28.7993 29.9018 28.8685C29.9018 29.4792 30.3962 29.9694 31.0026 29.9694C34.3942 29.9694 37.1532 27.4276 37.1532 24.2966C37.1571 21.17 34.3981 18.6225 31.0065 18.6225ZM20.9999 35.6192C19.2708 34.0709 16.3666 30.8901 16.3666 28.1223C16.3666 23.9463 18.8883 23.0729 20.9999 23.0729C23.1116 23.0729 25.6343 23.9438 25.6343 28.1223C25.6347 30.8774 22.7291 34.067 20.9999 35.6192ZM4.56333 35.0368C4.77206 35.609 4.47716 36.2408 3.90642 36.4541C3.77963 36.4993 3.65355 36.5166 3.52781 36.5166C3.07822 36.5166 2.65582 36.2411 2.49123 35.794C0.466461 30.2498 -0.603317 25.6193 4.06747 16.4872C9.35244 6.16022 5.16409 2.08277 4.98362 1.91501C4.54285 1.50532 4.50824 0.809561 4.91722 0.366675C5.32055 -0.0850406 6.00536 -0.123537 6.45496 0.276614C6.68841 0.488521 12.1517 5.53756 6.03256 17.4895C1.75238 25.845 2.67065 29.8624 4.56333 35.0368ZM39.5079 35.7937C39.3444 36.2408 38.9209 36.5163 38.4713 36.5163C38.3445 36.5163 38.2195 36.4944 38.0927 36.4538C37.5209 36.2404 37.226 35.6086 37.4347 35.0364C39.3253 29.8624 40.2432 25.845 35.9659 17.4888C29.8477 5.53474 35.3058 0.485343 35.5424 0.275908C35.9938 -0.124243 36.6909 -0.0853937 37.0971 0.37056C37.4994 0.822275 37.4605 1.51133 37.0155 1.91889C36.8114 2.10396 32.6562 6.18882 37.9295 16.4868C42.6067 25.6193 41.5312 30.2495 39.5079 35.7937Z" fill="#FFBC00"/>
</g>
<defs>
<clipPath id="clip0">
<rect width="42" height="42" fill="white"/>
</clipPath>
</defs>
</svg>
