<svg width="71" height="71" viewBox="0 0 71 71" fill="none" xmlns="http://www.w3.org/2000/svg">
<g clip-path="url(#clip0)">
<path d="M36.8658 28.4867H39.0677C39.6432 28.4867 40.1095 28.0204 40.1095 27.4449C40.1095 26.8694 39.6432 26.4031 39.0677 26.4031H36.8658C36.2903 26.4031 35.824 26.8694 35.824 27.4449C35.824 28.0204 36.2904 28.4867 36.8658 28.4867Z" fill="#0A0A0A"/>
<path d="M19.1512 18.89C19.7265 18.89 20.193 18.4236 20.193 17.8482C20.193 17.2728 19.7265 16.8064 19.1512 16.8064C18.5758 16.8064 18.1094 17.2728 18.1094 17.8482C18.1094 18.4236 18.5758 18.89 19.1512 18.89Z" fill="#0A0A0A"/>
<path d="M25.587 18.89C26.1623 18.89 26.6288 18.4236 26.6288 17.8482C26.6288 17.2728 26.1623 16.8064 25.587 16.8064C25.0116 16.8064 24.5452 17.2728 24.5452 17.8482C24.5452 18.4236 25.0116 18.89 25.587 18.89Z" fill="#0A0A0A"/>
<path d="M32.023 18.89C32.5984 18.89 33.0648 18.4236 33.0648 17.8482C33.0648 17.2728 32.5984 16.8064 32.023 16.8064C31.4476 16.8064 30.9812 17.2728 30.9812 17.8482C30.9812 18.4236 31.4476 18.89 32.023 18.89Z" fill="#0A0A0A"/>
<path d="M38.459 18.89C39.0344 18.89 39.5008 18.4236 39.5008 17.8482C39.5008 17.2728 39.0344 16.8064 38.459 16.8064C37.8837 16.8064 37.4172 17.2728 37.4172 17.8482C37.4172 18.4236 37.8837 18.89 38.459 18.89Z" fill="#0A0A0A"/>
<path d="M62.6739 38.4102C62.3255 35.4517 61.4272 32.5875 59.7489 30.0227C58.8141 28.5941 57.7703 27.2371 56.8942 25.7699C53.4102 19.9332 54.8411 11.152 55.9907 4.09594C56.1562 3.07942 56.3128 2.1193 56.4504 1.19529C56.495 0.89553 56.407 0.591047 56.2091 0.361435C56.0111 0.131961 55.7228 0 55.4199 0L20.9056 0.000277813C20.3408 0.000277813 19.9327 0.000277826 19.6274 0.494368C19.498 0.703839 19.4468 0.952204 19.4832 1.19571C19.6482 2.30057 19.8301 3.40404 20.0089 4.50349C20.1597 5.43222 20.3082 6.36178 20.4475 7.29273H13.8711C10.7178 7.29273 8.15234 9.8582 8.15234 13.0115V14.8633C8.15234 19.0376 11.5483 22.4335 15.7228 22.4335H20.4497C20.2461 23.1527 19.9945 23.8578 19.6839 24.538C18.7793 26.52 17.3664 28.2144 16.1846 30.0226C15.3421 31.3115 14.6805 32.6826 14.1805 34.1349C13.2508 36.835 12.9466 39.6714 13.0374 42.5212C13.1049 44.6426 13.3722 46.7503 13.7893 48.8307C14.3642 51.6982 15.1663 54.3344 15.9625 57.127C17.0733 61.0228 18.2222 65.0512 19.8197 68.9174C19.8204 68.9189 19.821 68.9204 19.8216 68.9221C19.8523 68.9959 20.4143 70.3562 20.4143 70.3562C20.5753 70.7459 20.9555 71.0001 21.3772 71.0001H54.5566C54.9783 71.0001 55.3583 70.7459 55.5195 70.356L56.1139 68.9174C58.6949 62.6703 60.3297 55.8738 61.7718 49.8772C62.658 46.1917 63.1228 42.2229 62.6739 38.4102ZM13.8711 9.37619H20.7403C20.9244 10.7982 21.053 12.0756 21.1319 13.2628H12.478C11.6864 13.2628 10.9151 13.0285 10.2604 12.5966C10.4669 10.7869 12.007 9.37619 13.8711 9.37619ZM22.0734 68.9164C21.909 68.5201 21.8073 68.2794 21.7366 68.1252L21.7453 68.1216C20.1932 64.3653 19.1115 60.5717 17.9662 56.5555C17.7587 55.8279 17.5509 55.0991 17.3398 54.3697C16.0632 49.9579 15.2464 46.4259 15.12 42.4551C15.0924 41.5845 15.1107 40.7332 15.1706 39.9027C15.8483 40.2351 16.5126 40.5364 17.119 40.8076C22.2419 43.0941 27.5968 45.6703 31.8188 49.7801C33.1173 51.0423 36.7365 54.8463 36.925 55.0935V68.8635C36.925 68.8814 36.9268 68.8989 36.9277 68.9167H22.0734V68.9164ZM37.9667 53.148C37.8251 53.0065 37.671 52.8577 37.5052 52.6996C36.7314 51.9617 36.0248 51.0941 35.2795 50.3136C34.6227 49.6256 33.9533 48.9497 33.2715 48.2863C28.8051 43.9386 23.0302 41.1641 17.9686 38.9049C17.1852 38.5548 16.3031 38.154 15.4372 37.704C15.8207 35.5027 16.5351 33.4938 17.5637 31.7504C17.6169 31.6604 18.1585 30.7914 18.1707 30.7985C19.4923 31.5592 21.3861 32.5161 23.8366 33.4272C24.3766 33.6283 24.9756 33.3533 25.1762 32.8139C25.3768 32.2745 25.1021 31.6749 24.5629 31.4743C22.3272 30.6428 20.5924 29.7777 19.3586 29.077C19.8602 28.3549 20.366 27.612 20.8281 26.8377C21.6409 25.4762 22.2147 23.9935 22.606 22.4333H47.4178C48.5426 22.4333 49.4577 21.5182 49.4577 20.3934V15.3025C49.4577 14.1778 48.5426 13.2627 47.4178 13.2627H43.4128C42.8373 13.2627 42.371 13.729 42.371 14.3045C42.371 14.8799 42.8373 15.3463 43.4128 15.3463H47.3741V20.3497H15.7228C12.7164 20.3497 10.2672 17.9192 10.2362 14.9201C10.9449 15.1994 11.7052 15.3463 12.478 15.3463H38.5163C39.0918 15.3463 39.5581 14.8799 39.5581 14.3045C39.5581 13.729 39.0918 13.2627 38.5163 13.2627H23.2197C23.2188 13.2627 23.2073 13.1144 23.2066 13.1065C22.9367 9.94821 22.5035 6.85073 21.9958 3.74103C21.903 3.17124 21.8132 2.61964 21.7282 2.08346C27.1128 2.0836 48.8121 2.0836 54.205 2.0836C54.119 2.62603 54.0282 3.18429 53.9341 3.7609C52.73 11.1511 51.2314 20.3486 55.1053 26.838C55.5673 27.612 56.0727 28.3544 56.5741 29.0762C54.1856 30.4269 49.3791 32.694 42.596 33.7237C39.5244 34.1906 36.4093 34.1903 33.3374 33.7237C31.8673 33.5005 30.4049 33.206 28.9908 32.8488C28.4327 32.7074 27.8665 33.0459 27.7255 33.6036C27.5845 34.1616 27.9225 34.728 28.4803 34.8689C29.9594 35.2425 31.4884 35.5504 33.0245 35.7837C36.3043 36.2822 39.63 36.282 42.9091 35.7837C50.0189 34.7044 55.0272 32.3768 57.7632 30.7991C57.8096 30.7722 58.4685 31.9164 58.5128 31.9941C59.1347 33.085 59.6243 34.2446 59.9875 35.4463C60.2047 36.1706 60.3772 36.9215 60.5071 37.6985C59.6371 38.151 58.7514 38.5534 57.9655 38.9045C52.9035 41.164 47.1287 43.9384 42.6627 48.2856C41.2 49.7092 39.8426 51.2346 38.4191 52.6904C38.269 52.8439 38.1184 52.9965 37.9667 53.148ZM59.7458 49.3898C58.3214 55.3123 56.707 62.0248 54.1879 68.1217L53.8595 68.9165H39.0059C39.0067 68.8988 39.0085 68.8813 39.0085 68.8633V55.0934C39.197 54.8461 42.817 51.0412 44.1152 49.7794C48.337 45.67 53.6916 43.0938 58.8149 40.8071C59.4184 40.5374 60.0795 40.2376 60.7545 39.9067C60.9252 42.7345 60.589 45.8839 59.7458 49.3898Z" fill="#0A0A0A"/>
</g>
<defs>
<clipPath id="clip0">
<rect width="71" height="71" fill="white"/>
</clipPath>
</defs>
</svg>
