<svg width="83" height="78" viewBox="0 0 83 78" fill="none" xmlns="http://www.w3.org/2000/svg">
<path d="M77.4665 35.9702C76.24 35.9718 75.0486 36.38 74.079 37.1311C73.1093 37.8821 72.4161 38.9335 72.1078 40.1206H55.2582C54.9885 37.4264 53.9341 34.8706 52.2255 32.7701C50.517 30.6696 48.2295 29.1167 45.6467 28.304V15.4848C46.8571 14.7856 47.8714 13.792 48.5952 12.5962C49.3191 11.4003 49.7292 10.041 49.7874 8.64434C49.8456 7.24768 49.5501 5.85894 48.9282 4.60701C48.3064 3.35507 47.3783 2.2805 46.2303 1.48301C45.0822 0.685526 43.7513 0.190966 42.361 0.0452278C40.9708 -0.100511 39.5662 0.107294 38.2778 0.64936C36.9893 1.19143 35.8586 2.05018 34.9906 3.14595C34.1227 4.24171 33.5456 5.53897 33.3129 6.91733H21.9525C21.6158 5.61319 20.815 4.47663 19.7002 3.72069C18.5854 2.96474 17.2332 2.64132 15.8971 2.81103C14.5609 2.98075 13.3325 3.63196 12.4421 4.64259C11.5517 5.65322 11.0605 6.95389 11.0605 8.3008C11.0605 9.64771 11.5517 10.9484 12.4421 11.959C13.3325 12.9697 14.5609 13.6209 15.8971 13.7906C17.2332 13.9603 18.5854 13.6369 19.7002 12.8809C20.815 12.125 21.6158 10.9884 21.9525 9.68427H33.3129C33.5183 10.8878 33.9861 12.0314 34.6831 13.0339C35.3801 14.0364 36.2892 14.8731 37.3459 15.4848V28.304C34.1895 29.2984 31.4937 31.3905 29.747 34.2013C28.0003 37.0121 27.3182 40.3556 27.8243 43.626L13.955 47.8936C12.6237 46.6519 10.9208 45.8825 9.10901 45.7042C7.2972 45.5258 5.47703 45.9484 3.92912 46.9068C2.38121 47.8651 1.19151 49.306 0.543438 51.0073C-0.104633 52.7087 -0.175089 54.5759 0.342932 56.3212C0.860954 58.0665 1.93869 59.593 3.40998 60.6653C4.88127 61.7375 6.66442 62.2961 8.48452 62.2548C10.3046 62.2135 12.0606 61.5746 13.4817 60.4367C14.9029 59.2988 15.9103 57.7251 16.3486 55.958L31.3938 50.943C33.4334 53.1341 36.1303 54.6025 39.0776 55.1266C42.0249 55.6507 45.0627 55.202 47.7326 53.8483L60.6976 66.8131C60.8267 66.9418 60.964 67.0619 61.1087 67.1728C60.6724 68.9325 60.8246 70.7867 61.542 72.4517C62.2594 74.1167 63.5025 75.5009 65.0811 76.3924C66.6598 77.284 68.487 77.6338 70.2833 77.3884C72.0796 77.1431 73.7461 76.316 75.0278 75.0337C76.3094 73.7514 77.1358 72.0846 77.3803 70.2882C77.6249 68.4917 77.2742 66.6647 76.382 65.0864C75.4897 63.5082 74.105 62.2657 72.4396 61.5491C70.7743 60.8325 68.92 60.6811 67.1605 61.1182C67.051 60.9733 66.9322 60.8357 66.8048 60.7063L53.8396 47.7413C54.6103 46.2255 55.0926 44.5796 55.2618 42.8875H72.108C72.3667 43.8897 72.9013 44.7992 73.6511 45.5127C74.4008 46.2262 75.3356 46.7152 76.3493 46.9241C77.363 47.133 78.415 47.0534 79.3857 46.6943C80.3565 46.3353 81.2071 45.7112 81.8409 44.893C82.4748 44.0748 82.8664 43.0952 82.9714 42.0656C83.0765 41.0359 82.8906 39.9974 82.435 39.0681C81.9794 38.1387 81.2723 37.3558 80.394 36.8082C79.5157 36.2606 78.5015 35.9703 77.4665 35.9702ZM16.5938 11.0677C16.0466 11.0677 15.5116 10.9055 15.0566 10.6014C14.6016 10.2974 14.2469 9.86526 14.0375 9.35967C13.8281 8.85407 13.7733 8.29774 13.88 7.761C13.9868 7.22427 14.2503 6.73125 14.6373 6.34428C15.0243 5.95732 15.5173 5.69379 16.054 5.58703C16.5907 5.48027 17.1471 5.53506 17.6527 5.74449C18.1583 5.95391 18.5904 6.30855 18.8944 6.76358C19.1985 7.2186 19.3608 7.75356 19.3608 8.3008C19.3599 9.03438 19.0681 9.73765 18.5494 10.2564C18.0307 10.7751 17.3274 11.0669 16.5938 11.0677ZM41.4963 2.76693C42.5908 2.76693 43.6607 3.09148 44.5707 3.69955C45.4808 4.30762 46.1901 5.1719 46.6089 6.18308C47.0278 7.19426 47.1373 8.30694 46.9238 9.38041C46.7103 10.4539 46.1832 11.4399 45.4093 12.2138C44.6354 12.9878 43.6493 13.5148 42.5759 13.7284C41.5024 13.9419 40.3897 13.8323 39.3785 13.4134C38.3674 12.9946 37.5031 12.2853 36.895 11.3753C36.2869 10.4652 35.9624 9.3953 35.9624 8.3008C35.964 6.83363 36.5476 5.42703 37.585 4.38958C38.6225 3.35213 40.0291 2.76857 41.4963 2.76693ZM41.4963 16.6016C41.9599 16.6011 42.4227 16.5619 42.8797 16.4842V33.2033C42.8797 33.5702 42.734 33.9221 42.4745 34.1815C42.2151 34.441 41.8632 34.5867 41.4963 34.5867C41.1294 34.5867 40.7775 34.441 40.518 34.1815C40.2586 33.9221 40.1128 33.5702 40.1128 33.2033V16.4842C40.5699 16.5619 41.0326 16.6011 41.4963 16.6016ZM8.293 59.4892C7.1985 59.4892 6.12858 59.1646 5.21854 58.5566C4.3085 57.9485 3.59921 57.0842 3.18036 56.073C2.76152 55.0618 2.65193 53.9492 2.86545 52.8757C3.07898 51.8022 3.60603 50.8162 4.37996 50.0423C5.15388 49.2683 6.13993 48.7413 7.21339 48.5278C8.28686 48.3142 9.39954 48.4238 10.4107 48.8427C11.4219 49.2615 12.2862 49.9708 12.8943 50.8808C13.5023 51.7909 13.8269 52.8608 13.8269 53.9553C13.8252 55.4225 13.2417 56.8291 12.2042 57.8665C11.1668 58.904 9.76017 59.4875 8.293 59.4892ZM16.5345 52.9786C16.4225 52.0271 16.1454 51.1025 15.7157 50.2462L28.5219 46.3056C28.82 47.1071 29.1919 47.8791 29.633 48.6117L16.5345 52.9786ZM30.4285 41.5041C30.4414 39.3024 31.105 37.1538 32.3358 35.3283C33.5666 33.5028 35.3097 32.0819 37.3459 31.2444V33.2033C37.3459 34.304 37.7831 35.3597 38.5615 36.138C39.3398 36.9164 40.3955 37.3537 41.4963 37.3537C42.597 37.3537 43.6527 36.9164 44.4311 36.138C45.2094 35.3597 45.6467 34.304 45.6467 33.2033V31.2444C47.5083 31.9975 49.1299 33.2429 50.3379 34.8471C51.5458 36.4514 52.2945 38.354 52.5038 40.3512C52.713 42.3485 52.375 44.365 51.5258 46.1848C50.6766 48.0045 49.3483 49.559 47.6832 50.6815C46.0181 51.8041 44.0789 52.4525 42.0735 52.5572C40.068 52.6619 38.0719 52.2191 36.2989 51.2761C34.526 50.333 33.043 48.9254 32.0089 47.204C30.9747 45.4826 30.4284 43.5122 30.4285 41.5041ZM74.6995 69.1735C74.6998 69.9491 74.537 70.7161 74.2217 71.4247C73.9064 72.1333 73.4457 72.7678 72.8694 73.2869C72.2931 73.806 71.6141 74.1981 70.8765 74.4379C70.1389 74.6777 69.3591 74.7597 68.5877 74.6787C67.8164 74.5977 67.0707 74.3555 66.3989 73.9677C65.7272 73.5799 65.1445 73.0553 64.6886 72.4278C64.2328 71.8003 63.9139 71.084 63.7527 70.3254C63.5914 69.5667 63.5915 68.7826 63.7528 68.024C64.8114 67.9971 65.8188 67.5636 66.5661 66.8134L66.8053 66.5743C67.553 65.826 67.9851 64.8193 68.0126 63.7619C68.819 63.59 69.6536 63.6006 70.4554 63.7928C71.2572 63.9849 72.006 64.3539 72.6469 64.8726C73.2879 65.3913 73.8048 66.0466 74.1599 66.7907C74.5151 67.5349 74.6994 68.3489 74.6995 69.1735ZM64.848 62.6618C65.107 62.9212 65.2525 63.2728 65.2525 63.6393C65.2525 64.0059 65.107 64.3575 64.848 64.6168L64.6089 64.856C64.3495 65.1147 63.9981 65.26 63.6318 65.26C63.2655 65.26 62.9141 65.1147 62.6547 64.856L50.1141 52.3155C50.9246 51.6681 51.6605 50.9323 52.3079 50.1217L64.848 62.6618ZM77.4665 44.271C76.9192 44.271 76.3843 44.1087 75.9293 43.8047C75.4742 43.5007 75.1196 43.0685 74.9102 42.5629C74.7007 42.0573 74.646 41.501 74.7527 40.9643C74.8595 40.4275 75.123 39.9345 75.51 39.5476C75.8969 39.1606 76.3899 38.8971 76.9267 38.7903C77.4634 38.6835 78.0198 38.7383 78.5253 38.9478C79.0309 39.1572 79.4631 39.5118 79.7671 39.9668C80.0712 40.4219 80.2334 40.9568 80.2334 41.5041C80.2326 42.2376 79.9408 42.9409 79.4221 43.4596C78.9033 43.9784 78.2001 44.2701 77.4665 44.271Z" fill="#FFBC00"/>
</svg>
