<svg width="41" height="41" viewBox="0 0 41 41" fill="none" xmlns="http://www.w3.org/2000/svg">
<g clip-path="url(#clip0)">
<path d="M37.3487 6.31648C36.2467 4.60874 34.3893 4.25023 33.0252 4.25023C29.8053 4.25023 27.8479 5.86412 26.755 7.14705C26.6932 6.82025 26.5428 6.52461 26.3295 6.28605C26.6136 5.96822 26.7867 5.54917 26.7867 5.09033V1.79639C26.7867 0.805826 25.9807 0 24.9902 0H16.0099C15.0192 0 14.2133 0.805826 14.2133 1.79639V5.09041C14.2133 5.54925 14.3865 5.96822 14.6706 6.28613C14.4573 6.52469 14.307 6.82017 14.2451 7.14681C13.6508 6.44925 12.8014 5.65488 11.6301 5.07391C11.3329 4.92649 10.9725 5.04797 10.8252 5.34505C10.6777 5.64222 10.7991 6.00258 11.0964 6.15C12.8065 6.99819 13.71 8.37265 14.1441 9.03321L14.173 9.0771C14.3986 9.42055 14.8983 9.68777 16.6042 9.87531C17.663 9.99175 19.0467 10.0559 20.5003 10.0559C21.9538 10.0559 23.3375 9.99175 24.3965 9.87531C26.1022 9.68777 26.6019 9.42055 26.8274 9.07734L26.8556 9.03457C27.4989 8.05466 29.2079 5.45156 33.0253 5.45156C34.5533 5.45156 35.6993 5.97591 36.3394 6.96792C36.9864 7.9705 37.0584 9.38315 36.5229 10.567C36.3593 10.9291 36.1559 11.3958 35.9183 11.954C35.7883 12.2592 35.9304 12.6119 36.2356 12.7418C36.3123 12.7745 36.3921 12.79 36.4706 12.79C36.7042 12.79 36.9263 12.6529 37.0235 12.4245C37.2578 11.8743 37.4577 11.4158 37.6177 11.0619C38.3168 9.5156 38.2112 7.65299 37.3487 6.31648ZM15.4146 1.79639C15.4146 1.46815 15.6817 1.20117 16.0098 1.20117H24.9901C25.3183 1.20117 25.5853 1.46815 25.5853 1.79639V5.09041C25.5853 5.41865 25.3183 5.68563 24.9901 5.68563H16.0099C15.6817 5.68563 15.4147 5.41865 15.4147 5.09041V1.79639H15.4146ZM20.5003 8.85456C17.8488 8.85456 16.1106 8.65212 15.4147 8.46298V7.4817C15.4147 7.15362 15.6816 6.88672 16.0097 6.88672H24.9905C25.3186 6.88672 25.5855 7.15362 25.5855 7.4817V8.46314C24.8893 8.6522 23.1511 8.85456 20.5003 8.85456Z" fill="#FFBC00"/>
<path d="M35.7125 13.9971C35.4059 13.8711 35.0547 14.0174 34.9286 14.3242C33.7117 17.2838 32.2615 20.9397 31.234 23.6384C30.4414 25.72 28.71 26.2896 27.7485 26.4439C26.0638 26.7144 24.2253 26.1531 23.3779 25.1096C22.6106 24.1641 21.5886 23.6432 20.5005 23.6432H20.5C19.4118 23.6432 18.3896 24.1639 17.6216 25.1096C16.7749 26.1528 14.9373 26.7139 13.2526 26.4441C12.2907 26.29 10.5586 25.7206 9.76548 23.6384C8.23182 19.6105 5.58748 13.023 4.47672 10.5671C3.94155 9.38285 4.01386 7.96995 4.6609 6.96762C5.30112 5.97561 6.4472 5.45142 7.97525 5.45142C8.27074 5.45142 8.56374 5.46735 8.84618 5.4989C9.17554 5.53486 9.47287 5.29815 9.50963 4.96855C9.54638 4.63894 9.30895 4.34185 8.97927 4.3051C8.65279 4.26874 8.31502 4.25024 7.97525 4.25024C5.50388 4.25024 4.25994 5.37358 3.65167 6.31602C2.78899 7.65236 2.68321 9.51506 3.38213 11.0617C4.4844 13.4991 7.11521 20.0536 8.64286 24.0659C9.39007 26.0273 10.9597 27.2932 13.0625 27.6302C13.4439 27.6913 13.8301 27.7172 14.2133 27.7116V27.8329C14.2133 28.2917 14.3864 28.7108 14.6705 29.0286C14.3864 29.3464 14.2133 29.7655 14.2133 30.2243V33.5183C14.2133 33.9772 14.3865 34.3962 14.6706 34.7141C14.3864 35.032 14.2133 35.451 14.2133 35.9099V39.2039C14.2133 40.1944 15.0192 41.0003 16.0098 41.0003H17.9415C18.2732 41.0003 18.5422 40.7315 18.5422 40.3998C18.5422 40.068 18.2733 39.7992 17.9415 39.7992H16.0098C15.6816 39.7992 15.4146 39.5322 15.4146 39.2039V35.9099C15.4146 35.5817 15.6816 35.3147 16.0098 35.3147H24.9901C25.3183 35.3147 25.5853 35.5817 25.5853 35.9099V39.2039C25.5853 39.5322 25.3183 39.7992 24.9901 39.7992H20.5C20.1683 39.7992 19.8993 40.068 19.8993 40.3998C19.8993 40.7315 20.1682 41.0003 20.5 41.0003H24.9901C25.9807 41.0003 26.7866 40.1945 26.7866 39.2039V35.9099C26.7866 35.4511 26.6134 35.032 26.3293 34.7141C26.6135 34.3963 26.7866 33.9773 26.7866 33.5183V30.2243C26.7866 29.7655 26.6135 29.3465 26.3294 29.0286C26.6135 28.7108 26.7866 28.2918 26.7866 27.8329V27.7117C26.8203 27.7122 26.8539 27.713 26.8876 27.713C27.238 27.713 27.5905 27.6859 27.939 27.63C30.0411 27.2927 31.6101 26.0269 32.3567 24.0659C33.3808 21.3762 34.8265 17.7317 36.0397 14.7811C36.1658 14.4741 36.0193 14.1232 35.7125 13.9971ZM16.0098 34.1133C15.6816 34.1133 15.4146 33.8463 15.4146 33.5181V30.2241C15.4146 29.8958 15.6816 29.6288 16.0098 29.6288H24.9901C25.3183 29.6288 25.5853 29.8958 25.5853 30.2241V33.5181C25.5853 33.8463 25.3183 34.1133 24.9901 34.1133H16.0098ZM25.5853 27.8328C25.5853 28.1609 25.3184 28.4278 24.9903 28.4278H16.0096C15.6814 28.4278 15.4145 28.1609 15.4145 27.8328V27.5879C16.6991 27.3397 17.8518 26.732 18.5542 25.8665C19.0896 25.2073 19.7806 24.8442 20.5 24.8442H20.5003C21.2195 24.8443 21.9102 25.2073 22.4452 25.8665C23.148 26.732 24.3007 27.3397 25.5852 27.5881V27.8328H25.5853Z" fill="#FFBC00"/>
<path d="M12.0975 15.1005C12.79 15.3803 13.5559 15.378 14.2542 15.0816C14.5595 14.952 14.702 14.5994 14.5723 14.2941C14.4427 13.9889 14.0902 13.8463 13.7848 13.976C13.3872 14.1447 12.9478 14.1484 12.5474 13.9868C12.147 13.825 11.8336 13.517 11.6649 13.1195C11.5353 12.8142 11.1828 12.6716 10.8773 12.8014C10.572 12.9309 10.4295 13.2835 10.5592 13.5889C10.8533 14.2817 11.3996 14.8185 12.0975 15.1005Z" fill="#FFBC00"/>
<path d="M13.8407 18.9614C13.5854 19.1732 13.5501 19.5518 13.7619 19.8071C14.3186 20.4778 15.1229 20.8244 15.9331 20.8244C16.5672 20.8244 17.2051 20.612 17.73 20.1764C17.9853 19.9645 18.0206 19.5859 17.8088 19.3306C17.597 19.0754 17.2183 19.0401 16.963 19.2519C16.277 19.8211 15.2556 19.7261 14.6864 19.04C14.4746 18.7847 14.0959 18.7497 13.8407 18.9614Z" fill="#FFBC00"/>
<path d="M28.9025 15.1006C29.6003 14.8186 30.1466 14.2817 30.4408 13.5889C30.5704 13.2836 30.428 12.931 30.1226 12.8014C29.8172 12.6722 29.4647 12.8143 29.335 13.1196C29.1662 13.5171 28.8528 13.8252 28.4525 13.9868C28.052 14.1485 27.6127 14.1447 27.2151 13.976C26.9103 13.8465 26.5572 13.9888 26.4276 14.2942C26.2979 14.5995 26.4403 14.9521 26.7457 15.0817C27.4373 15.3753 28.2031 15.383 28.9025 15.1006Z" fill="#FFBC00"/>
<path d="M26.3135 19.0401C25.7442 19.7261 24.7228 19.8212 24.0369 19.252C23.7815 19.0402 23.4029 19.0755 23.1911 19.3307C22.9793 19.586 23.0146 19.9646 23.2698 20.1765C23.7949 20.612 24.4326 20.8245 25.0668 20.8245C25.877 20.8245 26.6815 20.4778 27.2379 19.8071C27.4498 19.5519 27.4145 19.1732 27.1592 18.9614C26.904 18.7496 26.5253 18.7849 26.3135 19.0401Z" fill="#FFBC00"/>
<path d="M20.5213 15.9761C21.26 15.9761 21.9567 15.6931 22.4868 15.1766C22.7244 14.9451 22.7295 14.5648 22.498 14.3274C22.2664 14.0898 21.8862 14.0851 21.6487 14.3163C21.3393 14.6177 20.9316 14.7787 20.4994 14.7749C20.0675 14.7693 19.6638 14.5959 19.3624 14.2866C19.131 14.049 18.7506 14.0441 18.513 14.2754C18.2754 14.5069 18.2705 14.8872 18.502 15.1247C19.0273 15.6638 19.731 15.9661 20.4838 15.9759C20.4962 15.9761 20.5087 15.9761 20.5213 15.9761Z" fill="#FFBC00"/>
</g>
<defs>
<clipPath id="clip0">
<rect width="41" height="41" fill="white"/>
</clipPath>
</defs>
</svg>
