<svg width="74" height="74" viewBox="0 0 74 74" fill="none" xmlns="http://www.w3.org/2000/svg">
<g clip-path="url(#clip0)">
<path d="M31.7302 29.2626C31.178 29.0306 30.5429 29.2908 30.3114 29.843C30.212 30.0795 30.1172 30.32 30.0297 30.5572C29.8214 31.1189 30.1076 31.7422 30.6694 31.9505C30.7936 31.9963 30.9206 32.0183 31.0459 32.0183C31.4863 32.0183 31.9007 31.7479 32.0622 31.3109C32.1395 31.102 32.2231 30.8903 32.3111 30.6814C32.5426 30.1292 32.2823 29.4941 31.7302 29.2626Z" fill="#FFBC00"/>
<path d="M30.002 37.6747C30.5965 37.6747 31.0809 37.1948 31.086 36.5992C31.0877 36.3739 31.0944 36.1464 31.1057 35.924C31.1368 35.3261 30.6772 34.8163 30.0793 34.7858C29.4831 34.7547 28.9716 35.2143 28.9406 35.8122C28.9276 36.0662 28.9197 36.3248 28.918 36.5817C28.9129 37.1807 29.3945 37.6696 29.993 37.6747H30.002Z" fill="#FFBC00"/>
<path d="M31.7177 41.3004C31.5585 40.7234 30.9623 40.3846 30.3848 40.5438C29.8072 40.703 29.4685 41.2998 29.6277 41.8774C29.6949 42.1201 29.7677 42.3663 29.8439 42.6085C29.9901 43.0709 30.4175 43.3667 30.8777 43.3667C30.9855 43.3667 31.0956 43.3503 31.2045 43.3159C31.7753 43.1358 32.0921 42.5272 31.912 41.9558C31.8431 41.739 31.7782 41.5183 31.7177 41.3004Z" fill="#FFBC00"/>
<path d="M12.283 22.8912H17.9456V25.0632C17.9456 26.5333 19.7235 27.2531 20.751 26.2256L24.0069 22.9691C24.6477 22.3289 24.6477 21.2861 24.0069 20.6453L20.751 17.3894C19.7178 16.3568 17.9456 17.0891 17.9456 18.5519V20.7233H12.283C11.6845 20.7233 11.199 21.2088 11.199 21.8078C11.199 22.4063 11.6845 22.8912 12.283 22.8912ZM20.1136 19.8182L22.1032 21.8072L20.1136 23.7962V19.8182Z" fill="#FFBC00"/>
<path d="M15.1295 39.2729C15.1295 40.7357 16.9023 41.4668 17.9349 40.4348L21.1908 37.1789C21.831 36.5381 21.831 35.4959 21.1908 34.8551L17.9349 31.5992C16.9017 30.566 15.1295 31.2988 15.1295 32.7611V34.933H9.4668C8.86778 34.933 8.38281 35.4185 8.38281 36.017C8.38281 36.616 8.86778 37.101 9.4668 37.101H15.1295V39.2729ZM17.2975 34.028L19.2865 36.017L17.2975 38.006V34.028Z" fill="#FFBC00"/>
<path d="M20.751 45.8085C19.7178 44.7759 17.9456 45.5082 17.9456 46.971V49.1423H12.283C11.6845 49.1423 11.199 49.6279 11.199 50.2269C11.199 50.8253 11.6845 51.3109 12.283 51.3109H17.9456V53.4828C17.9456 54.9518 19.7224 55.6728 20.751 54.6447L24.0069 51.3888C24.6477 50.748 24.6477 49.7052 24.0069 49.0644L20.751 45.8085ZM20.1136 52.2159V48.2379L22.1032 50.2269L20.1136 52.2159Z" fill="#FFBC00"/>
<path d="M63.7548 0H37.7922C36.741 0 35.8563 0.821457 35.7795 1.86987C35.552 4.96205 35.1156 9.56052 34.3274 13.9072C33.7459 17.1168 32.1967 20.0802 29.8475 22.4763C26.2021 26.1952 23.9584 30.8427 23.9584 36.0097C23.9584 36.0097 23.3899 44.156 31.3064 52.2926C32.0765 53.0847 32.5281 54.1202 32.5778 55.2087C32.7235 58.3782 33.0453 64.7901 33.5647 72.1228C33.6386 73.1752 34.5233 74 35.5785 74H43.3183C43.9173 74 44.4023 73.5145 44.4023 72.916C44.4023 72.317 43.9173 71.832 43.3183 71.832H35.7174C35.2053 64.5801 34.888 58.2489 34.7441 55.1093C34.6696 53.4901 34.0005 51.9533 32.8601 50.7813C32.8409 50.761 32.82 50.7389 32.7997 50.718C42.0277 45.2552 54.2868 43.3334 58.7063 42.7931C58.7741 55.0404 57.5365 65.8865 56.6891 71.832H48.3774C47.7784 71.832 47.2935 72.317 47.2935 72.916C47.2935 73.5145 47.7784 74 48.3774 74H56.8184C57.816 74 58.6753 73.2553 58.8164 72.2679C60.4673 60.7483 61.2554 47.8178 60.6982 35.9538C60.9263 34.9252 62.3191 28.5494 63.5961 20.6951C63.6921 20.104 63.2907 19.5473 62.7001 19.4507C62.1096 19.3553 61.5524 19.7562 61.4558 20.3473C60.3837 26.9444 59.2297 32.4857 58.7639 34.6485C45.965 31.5778 36.5586 26.8602 31.4904 23.894C34.0909 21.2043 35.8094 17.8886 36.4609 14.2939C37.2542 9.91846 37.6974 5.31039 37.9317 2.16797H63.5973C63.3793 5.98958 62.9169 10.4102 62.2231 15.3102C62.139 15.903 62.5517 16.4512 63.1445 16.5353C63.7373 16.6188 64.2855 16.2067 64.3696 15.6139C65.0815 10.5863 65.5535 6.05055 65.7709 2.1324C65.8019 1.58025 65.6015 1.03317 65.2215 0.63176C64.8421 0.230347 64.3075 0 63.7548 0V0ZM31.3301 49.0701C25.327 41.7876 24.0358 32.9853 30.0186 25.5436C35.1489 28.5844 45.0272 33.6244 58.5663 36.8312C58.6194 38.0981 58.6567 39.3509 58.6804 40.6122C54.2846 41.1361 41.1226 43.133 31.3301 49.0701Z" fill="#FFBC00"/>
</g>
<defs>
<clipPath id="clip0">
<rect width="74" height="74" fill="white"/>
</clipPath>
</defs>
</svg>
