<svg width="19" height="15" viewBox="0 0 19 15" fill="none" xmlns="http://www.w3.org/2000/svg">
<path d="M1.79419 4.6236C2.03066 4.79401 2.74346 5.30014 3.93263 6.14173C5.12184 6.98332 6.03285 7.63133 6.66571 8.08578C6.73524 8.13559 6.88296 8.24388 7.10894 8.41079C7.33496 8.57781 7.52276 8.71277 7.6722 8.81572C7.82174 8.91864 8.00253 9.03409 8.21474 9.16189C8.42687 9.28958 8.62684 9.38563 8.8146 9.44921C9.0024 9.51332 9.17624 9.54507 9.33617 9.54507H9.34665H9.35718C9.5171 9.54507 9.69101 9.51328 9.87881 9.44921C10.0665 9.38563 10.2667 9.28947 10.4786 9.16189C10.6907 9.03394 10.8715 8.9186 11.021 8.81572C11.1705 8.71277 11.3582 8.57781 11.5843 8.41079C11.8102 8.24373 11.9581 8.13559 12.0277 8.08578C12.6674 7.63133 14.2948 6.47715 16.9096 4.62337C17.4172 4.26131 17.8413 3.82443 18.182 3.31304C18.523 2.80187 18.6933 2.26562 18.6933 1.7046C18.6933 1.23578 18.528 0.834463 18.1977 0.500685C17.8673 0.166833 17.4761 0 17.0242 0H1.66898C1.13353 0 0.721461 0.184632 0.432854 0.553896C0.144285 0.923234 0 1.38489 0 1.93882C0 2.38626 0.191308 2.87112 0.573741 3.39311C0.956138 3.91514 1.36309 4.32534 1.79419 4.6236Z" fill="#FFBC00"/>
<path d="M17.65 5.76343C15.3692 7.34 13.6374 8.56526 12.4553 9.43894C12.0589 9.73712 11.7373 9.96988 11.4904 10.1367C11.2434 10.3036 10.915 10.474 10.5046 10.648C10.0944 10.8221 9.71206 10.909 9.35732 10.909H9.34669H9.3362C8.98154 10.909 8.599 10.8221 8.18876 10.648C7.77852 10.474 7.44987 10.3036 7.20299 10.1367C6.95618 9.96988 6.63451 9.73712 6.23815 9.43894C5.29926 8.73586 3.57113 7.51052 1.05369 5.76343C0.657192 5.49372 0.305998 5.18457 0 4.83661V13.2952C0 13.7643 0.163357 14.1654 0.490254 14.4992C0.817078 14.8331 1.21007 15 1.66909 15H17.0244C17.4833 15 17.8762 14.8331 18.2031 14.4992C18.5301 14.1653 18.6933 13.7643 18.6933 13.2952V4.83661C18.3943 5.17736 18.0466 5.48651 17.65 5.76343Z" fill="#FFBC00"/>
</svg>
