<svg width="21" height="20" viewBox="0 0 21 20" fill="none" xmlns="http://www.w3.org/2000/svg">
<path d="M19.8292 15.4998C19.7679 15.3344 19.4114 15.0821 18.7601 14.7435C18.5831 14.6377 18.3311 14.4935 18.0052 14.3104C17.679 14.1273 17.3828 13.9587 17.1172 13.8048C16.851 13.6509 16.6015 13.5021 16.3681 13.3586C16.3306 13.3301 16.2133 13.247 16.0164 13.1087C15.8193 12.9707 15.6537 12.8677 15.5187 12.7997C15.3839 12.732 15.2527 12.6959 15.1251 12.6918C14.9429 12.6858 14.7208 12.8081 14.4585 13.0582C14.1963 13.3085 13.9575 13.582 13.7428 13.8795C13.5279 14.1768 13.2984 14.4505 13.0545 14.7014C12.8102 14.9523 12.606 15.075 12.4422 15.0697C12.3599 15.067 12.2564 15.0408 12.1316 14.9917C12.0069 14.9423 11.9118 14.9003 11.8463 14.8669C11.7814 14.8327 11.6696 14.7658 11.5106 14.665C11.3513 14.5645 11.2627 14.5094 11.2442 14.4996C9.9668 13.7681 8.86292 12.9424 7.93231 12.0228C7.00197 11.1027 6.16405 10.0089 5.41901 8.74093C5.40915 8.72244 5.35298 8.63433 5.25086 8.47677C5.1486 8.31905 5.08018 8.20803 5.04561 8.14319C5.01104 8.07858 4.96838 7.98409 4.91772 7.85992C4.86706 7.73574 4.8399 7.63279 4.83644 7.55087C4.82953 7.38733 4.95055 7.18235 5.19947 6.93619C5.44835 6.69019 5.72067 6.45834 6.01618 6.24113C6.31193 6.02392 6.58358 5.78299 6.83179 5.51879C7.07989 5.25444 7.2001 5.03149 7.19242 4.8497C7.18705 4.72251 7.14968 4.5918 7.0804 4.45796C7.01106 4.32382 6.90632 4.1595 6.76608 3.9642C6.6258 3.76901 6.54131 3.65289 6.51238 3.61546C6.36626 3.38392 6.21492 3.13619 6.05802 2.87234C5.90113 2.60854 5.72962 2.3146 5.54299 1.99083C5.35651 1.66722 5.20956 1.41724 5.10194 1.24127C4.75634 0.594687 4.50034 0.241245 4.334 0.181569C4.26904 0.152227 4.17273 0.135365 4.04531 0.131232C3.79917 0.123247 3.48 0.158205 3.08755 0.236385C2.69496 0.314417 2.38704 0.399631 2.16347 0.4924C1.71598 0.668434 1.25658 1.2073 0.785121 2.10879C0.356585 2.9481 0.160027 3.7862 0.195373 4.62248C0.205739 4.86774 0.231764 5.10688 0.273451 5.33994C0.315127 5.57277 0.383138 5.83602 0.477528 6.12966C0.571771 6.42319 0.647008 6.64141 0.702929 6.78374C0.758901 6.92617 0.862951 7.18143 1.01503 7.54963C1.16692 7.91772 1.25842 8.14301 1.28921 8.22571C1.64571 9.12702 2.05744 9.93468 2.52429 10.6489C3.29292 11.8359 4.32555 13.0702 5.62159 14.3515C6.91767 15.6328 8.16399 16.6515 9.36058 17.4075C10.0805 17.8665 10.8939 18.2696 11.8001 18.6169C11.8833 18.6467 12.1099 18.7357 12.48 18.8842C12.8502 19.0323 13.107 19.1337 13.2502 19.1883C13.3935 19.2429 13.6129 19.316 13.9076 19.4073C14.203 19.4987 14.4671 19.564 14.7008 19.6036C14.9345 19.6426 15.1744 19.6665 15.4203 19.6745C16.2583 19.7017 17.0961 19.4972 17.9329 19.0614C18.8313 18.5823 19.3665 18.1185 19.5386 17.6698C19.6297 17.446 19.7118 17.1377 19.7862 16.7451C19.8608 16.3527 19.8927 16.0338 19.8823 15.7882C19.8772 15.6606 19.8594 15.5648 19.8292 15.4998Z" fill="#FFBC00"/>
</svg>
