<svg width="25" height="29" viewBox="0 0 25 29" fill="none" xmlns="http://www.w3.org/2000/svg">
<path d="M5.01579 28.671C4.17456 28.6688 3.34752 28.4557 2.61148 28.0514C1.81629 27.63 1.15253 27.0006 0.692201 26.2313C0.231867 25.4621 -0.00746248 24.5824 0.000177346 23.6876V4.97453C-0.000234641 4.08095 0.241958 3.20377 0.701281 2.43526C1.1606 1.66675 1.82008 1.0353 2.61035 0.607343C3.40062 0.179382 4.29247 -0.0292795 5.1921 0.00330825C6.09172 0.035896 6.96588 0.308528 7.72262 0.792527L22.3857 10.1491C23.091 10.5994 23.6712 11.2182 24.073 11.9489C24.4748 12.6796 24.6853 13.4987 24.6853 14.3311C24.6853 15.1635 24.4748 15.9826 24.073 16.7133C23.6712 17.444 23.091 18.0628 22.3857 18.5131L7.72262 27.8696C6.91696 28.39 5.977 28.6683 5.01579 28.671ZM5.01579 3.16011C4.53109 3.16136 4.06655 3.35282 3.72352 3.69273C3.38049 4.03264 3.18679 4.49341 3.18469 4.97453V23.6876C3.18482 24.0127 3.27309 24.3318 3.44026 24.6114C3.60742 24.891 3.84731 25.1207 4.13475 25.2766C4.42219 25.4324 4.74659 25.5086 5.07391 25.4971C5.40123 25.4856 5.71939 25.3869 5.99502 25.2112L20.6581 15.8531C20.9151 15.6893 21.1266 15.464 21.273 15.1979C21.4195 14.9318 21.4962 14.6335 21.4962 14.3303C21.4962 14.0271 21.4195 13.7288 21.273 13.4627C21.1266 13.1966 20.9151 12.9713 20.6581 12.8075L5.99502 3.45251C5.70355 3.26399 5.36367 3.1625 5.01579 3.16011Z" fill="white"/>
</svg>
