<svg width="21" height="25" viewBox="0 0 21 25" fill="none" xmlns="http://www.w3.org/2000/svg">
<path d="M4.26697 24.3906C3.55134 24.3888 2.84776 24.2075 2.22161 23.8636C1.54514 23.5051 0.980471 22.9696 0.588861 22.3152C0.197251 21.6608 -0.00634839 20.9124 0.000150869 20.1513V4.23188C-0.000199611 3.4717 0.205836 2.72548 0.596586 2.0717C0.987336 1.41792 1.54836 0.880741 2.22065 0.516672C2.89294 0.152602 3.65164 -0.0249084 4.41696 0.00281436C5.18228 0.0305371 5.92593 0.262468 6.5697 0.67421L19.0437 8.63392C19.6437 9.01698 20.1373 9.54344 20.4791 10.165C20.8209 10.7866 21 11.4834 21 12.1916C21 12.8997 20.8209 13.5965 20.4791 14.2181C20.1373 14.8397 19.6437 15.3662 19.0437 15.7492L6.5697 23.7089C5.88432 24.1516 5.08468 24.3884 4.26697 24.3906ZM4.26697 2.68834C3.85464 2.6894 3.45945 2.85227 3.16763 3.14144C2.87581 3.4306 2.71103 3.82258 2.70924 4.23188V20.1513C2.70935 20.4279 2.78445 20.6993 2.92666 20.9371C3.06887 21.175 3.27294 21.3704 3.51747 21.503C3.762 21.6355 4.03797 21.7003 4.31642 21.6906C4.59487 21.6808 4.86553 21.5968 5.10002 21.4474L17.574 13.4864C17.7927 13.347 17.9726 13.1554 18.0972 12.929C18.2217 12.7026 18.287 12.4488 18.287 12.1909C18.287 11.933 18.2217 11.6792 18.0972 11.4528C17.9726 11.2265 17.7927 11.0348 17.574 10.8954L5.10002 2.93708C4.85206 2.7767 4.56292 2.69037 4.26697 2.68834Z" fill="#0A0A0A"/>
</svg>
